<svg width="62" height="98" viewBox="0 0 62 98" fill="none" xmlns="http://www.w3.org/2000/svg">
<path d="M30.7754 0C47.7714 0 61.5494 2.48163 61.5508 5.54297C61.5508 5.96124 61.2921 6.36701 60.8047 6.75879C61.2679 7.28675 61.5507 7.97682 61.5508 8.73438V87.2236C61.5508 88.8805 60.2076 90.2236 58.5508 90.2236H3C1.34315 90.2236 0 88.8805 0 87.2236V8.73438C5.74166e-05 7.9771 0.282188 7.28668 0.745117 6.75879C0.258159 6.36719 0 5.96103 0 5.54297C0.00133332 2.48164 13.7794 1.03979e-05 30.7754 0Z" fill="url(#paint0_linear_60_64)"/>
<ellipse cx="30.3932" cy="86.9743" rx="30.3932" ry="10.1311" fill="#FFFED8"/>
<defs>
<linearGradient id="paint0_linear_60_64" x1="30.7754" y1="0" x2="30.7754" y2="90.2236" gradientUnits="userSpaceOnUse">
<stop stop-color="#FF8000"/>
<stop offset="1" stop-color="#F9F9B8"/>
</linearGradient>
</defs>
</svg>
