<svg width="399" height="686" viewBox="0 0 399 686" fill="none" xmlns="http://www.w3.org/2000/svg">
<g clip-path="url(#clip0_51_64)">
<path d="M128.031 533.7C135.61 536.629 158.853 545.239 174.352 545.239C183.994 545.239 188.131 541.62 188.131 537.66C188.131 531.289 182.621 525.26 173.84 519.921C197.089 519.921 216.891 517.511 231.871 517.511C241.342 517.511 248.921 518.542 254.26 521.642C244.442 523.711 235.661 530.941 235.661 536.97C235.661 540.931 239.792 543.86 248.231 543.86C262.01 543.86 283.861 540.614 294.881 540.614C289.89 549.054 289.902 573.48 290.769 581.919C279.919 570.209 266.147 564.528 210.697 564.528C167.988 564.528 145.435 573.998 135.958 584.506C136.477 575.036 133.029 544.556 128.038 533.706L128.031 533.7ZM174.182 675.08C174.182 660.96 198.291 638.919 198.291 618.428C198.291 611.02 195.881 606.199 188.992 606.199C182.102 606.199 174.7 611.368 174.7 618.08C174.7 625.14 179.692 631.34 186.752 633.921C174.182 637.71 169.873 647.523 166.09 656.481C161.788 666.122 158.511 673.359 148.01 673.359C136.989 673.359 129.929 664.749 129.929 651.66C129.929 630.309 148.699 614.98 148.699 597.418C148.699 593.116 147.668 588.808 145.258 584.329C151.799 586.221 160.928 588.631 168.507 588.631C183.317 588.631 190.548 584.671 190.548 580.71C190.548 576.75 187.106 571.582 185.208 569.519C203.808 571.93 229.467 567.109 237.388 570.55C234.117 572.619 231.536 576.75 231.536 580.71C231.536 583.981 236.357 586.91 242.386 586.91C258.056 586.91 273.207 578.99 281.305 580.54C280.274 583.469 279.926 586.392 279.926 590.01C279.926 605.851 296.975 617.39 296.975 641.152C296.975 656.303 289.396 670.253 266.495 670.253C246.694 670.253 237.736 656.822 237.736 643.214C237.736 632.884 243.588 624.615 248.756 624.615C250.825 624.615 251.514 625.823 252.198 627.196C252.716 628.404 253.406 629.777 254.779 629.777C257.879 629.777 260.289 627.025 260.289 622.198C260.289 612.557 250.989 604.637 239.621 604.637C230.669 604.637 225.501 608.426 225.501 617.897C225.501 643.037 247.712 674.036 249.262 682.817C209.83 675.757 205.351 685.057 185.031 685.057C177.8 685.057 174.182 681.438 174.182 675.067V675.08Z" fill="white"/>
<path d="M131.042 60.4415C131.042 46.1504 135.521 33.0613 131.042 15.4994C142.923 19.1181 160.662 9.98924 166.172 0C177.541 1.03119 192.521 11.71 206.294 9.47048C202.852 21.5221 206.465 46.3212 208.704 55.6209C198.886 47.3524 177.534 34.2696 169.785 34.2696C164.445 34.2696 138.786 50.2815 133.965 78.1805C131.726 71.8099 131.036 66.1289 131.036 60.4415H131.042Z" fill="white"/>
<path d="M131.042 130.702C134.313 132.422 138.621 134.32 141.032 134.32C142.752 134.32 143.961 133.112 143.961 130.018C143.961 125.887 139.14 116.758 132.422 114.519C140.513 112.45 151.533 108.838 157.733 108.838C156.183 110.906 154.804 117.106 154.804 122.098C154.804 126.229 155.494 129.847 157.214 129.847C160.833 129.847 161.523 121.067 161.523 111.596C161.523 106.605 159.802 102.296 155.494 102.296C149.294 102.296 144.125 105.055 140.684 109.186C137.755 100.576 137.242 86.4553 137.925 79.566C141.367 81.9763 147.744 84.5574 154.456 84.5574C159.106 84.5574 161.345 82.1471 161.345 79.566C161.345 75.6057 158.935 73.885 156.354 73.885C153.944 73.885 149.123 75.6057 145.675 78.1868C147.915 70.4371 150.154 57.1772 148.946 51.4962C157.214 55.2856 185.626 53.9065 198.367 50.9774C196.988 56.146 199.917 71.6391 202.156 76.8077C198.538 75.4286 188.726 73.1891 185.626 73.1891C182.526 73.1891 179.597 75.2578 179.597 79.0409C179.597 81.97 182.178 84.5511 186.486 84.5511C193.888 84.5511 202.846 81.1096 206.977 77.6618C208.185 83.6907 208.356 101.082 206.117 107.452C202.498 104.011 194.925 101.082 188.036 101.082C182.526 101.082 180.116 106.934 180.116 111.583C180.116 118.644 180.805 126.912 184.076 126.912C185.967 126.912 187.005 122.091 187.005 118.821C187.005 114 185.455 109.869 183.734 107.971C191.136 107.971 204.054 109.179 207.496 112.45C201.125 114.519 196.994 121.579 196.994 125.02C196.994 128.462 198.886 130.36 204.744 131.391C198.544 138.451 202.852 142.241 202.675 149.99C202.675 157.74 196.646 160.492 186.663 160.492C177.882 160.492 170.474 158.771 159.625 158.771C151.356 158.771 144.644 162.561 141.715 170.481C134.826 158.942 136.034 141.899 131.036 130.702H131.042Z" fill="white"/>
<path d="M254.172 143.62C250.383 130.702 249.522 114.861 246.081 105.219C244.36 100.399 241.089 95.7487 234.029 92.1301C237.3 88.3406 244.189 83.3492 249.01 81.2805C249.529 84.3804 250.902 89.3718 254.179 89.3718C256.76 89.3718 257.968 87.1323 257.968 82.3117C257.968 79.9013 257.108 77.3202 255.558 74.9036C262.099 74.9036 279.667 78.3451 290.859 86.2719C276.049 89.0239 265.199 98.6715 265.199 107.111C265.199 112.792 267.78 116.752 271.051 116.752C274.151 116.752 276.39 114.342 276.39 110.552C276.39 105.384 273.809 104.7 273.809 101.423C273.809 97.9819 276.567 96.432 280.528 96.432C292.238 96.432 299.817 111.413 299.817 130.012C299.817 153.432 294.477 168.413 279.326 168.413C264.174 168.413 258.145 157.221 254.185 143.614L254.172 143.62Z" fill="white"/>
<path d="M277.415 4.9917C261.745 4.9917 238.667 11.1915 207.845 6.02289C212.837 17.2141 214.734 30.4741 214.734 48.7318C214.734 85.7533 211.976 121.231 203.024 122.433C211.464 132.935 207.845 157.044 206.295 164.794C211.976 161.865 217.486 159.803 222.826 159.803C227.817 159.803 233.327 161.182 238.667 161.182C243.487 161.182 247.277 158.082 247.277 151.193C247.277 144.303 239.875 135.522 247.106 120.883C234.707 122.262 231.436 104.005 231.436 90.4031C231.436 78.6931 237.288 69.7414 253.995 69.7414C272.076 69.7414 284.476 72.1517 291.536 78.0099C296.527 57.8606 289.644 22.7307 299.975 8.09792C290.846 5.16884 285.684 4.99803 277.415 4.99803V4.9917ZM250.206 51.8317C244.867 51.8317 239.356 51.8317 239.356 47.7006C239.356 43.2216 247.796 42.8799 254.508 42.8799C263.637 42.8799 266.218 43.0507 266.218 46.4986C266.218 50.6297 258.127 51.838 250.206 51.838V51.8317ZM249.523 32.5491C246.942 32.3783 237.984 33.0678 237.642 28.9304C237.984 23.4202 247.802 23.7618 258.652 23.939C264.503 23.939 268.982 24.4577 268.982 27.3805C268.982 31.3408 259.512 32.5491 249.523 32.5491Z" fill="white"/>
<path d="M130.031 421.325C130.031 398.766 140.71 375.004 133.992 358.474C143.633 363.984 159.303 366.913 172.911 367.084C182.381 367.254 190.65 364.325 190.65 359.163C190.65 353.653 181.869 347.453 174.638 343.493C195.3 343.664 216.139 342.114 231.98 342.114C243.86 342.114 252.818 342.974 256.431 346.245C245.929 347.966 239.729 354.165 239.729 359.505C239.729 363.123 244.379 365.705 251.781 365.705C269.001 365.705 283.982 357.094 295.173 360.024C287.942 375.175 298.792 398.253 298.792 420.123C298.792 428.734 297.071 437.344 291.902 445.093C285.873 424.254 270.551 411.513 260.733 410.305C264.864 405.826 267.622 400.835 267.622 396.355C267.622 385.164 253.673 379.996 213.551 379.996C178.94 379.996 160.859 384.816 160.859 396.697C160.859 400.657 163.959 405.997 168.267 410.988C155.868 412.709 144.847 427.177 137.787 448.187C131.935 439.918 130.038 430.796 130.038 421.325H130.031Z" fill="white"/>
<path d="M266.925 429.246C266.925 425.115 267.444 420.465 270.715 416.675C268.305 415.815 264.003 416.157 259.865 415.296C255.905 414.778 252.464 413.405 252.464 409.957C252.464 404.447 257.455 397.386 264.344 394.287C255.905 390.156 241.614 391.535 234.725 390.497C238.685 402.897 233.175 410.994 229.044 410.994C225.773 410.994 224.394 408.578 224.394 404.617C224.394 393.774 229.904 389.295 238.514 385.335C228.012 381.375 206.484 384.987 187.714 385.164C193.572 389.637 202.011 394.287 202.011 406.345C202.011 409.096 199.943 411.336 197.184 411.336C193.224 411.336 191.332 405.307 192.193 391.705C182.204 393.774 172.044 395.318 163.604 395.666C171.354 400.145 177.554 408.407 177.554 412.715C177.554 417.023 171.012 418.396 160.163 416.157C162.921 420.288 164.123 424.425 164.123 428.904C164.123 447.845 141.393 462.997 141.393 482.456C141.393 497.266 152.932 508.287 168.431 508.287C177.902 508.287 182.722 504.668 182.722 499.158C182.722 493.135 181.862 484.006 192.022 480.388C188.233 477.288 186.853 474.536 186.853 472.125C186.853 465.755 196.324 461.105 212.513 461.105C240.924 461.105 246.435 466.786 246.435 474.017C246.435 477.117 243.853 478.667 240.754 478.667C237.995 478.667 236.104 476.946 236.104 475.396C236.104 473.505 237.312 473.157 237.312 471.088C237.312 469.019 234.554 467.305 229.904 467.305C217.334 467.305 207.521 475.738 207.521 488.485C207.521 501.233 221.642 510.868 242.993 510.868C274.334 510.868 288.112 497.095 288.112 478.148C288.112 456.797 266.925 446.295 266.925 429.246ZM226.367 449.648H213.032C201.549 449.648 192.155 447.086 192.155 443.948C192.155 440.81 193.717 438.248 195.634 438.248C197.551 438.248 199.12 436.42 199.12 434.18C199.12 431.941 197.551 430.112 195.634 430.112C193.717 430.112 192.155 427.417 192.155 424.128C192.155 420.838 201.549 418.137 213.032 418.137H214.461C225.944 418.137 235.338 420.832 235.338 424.128C235.338 427.424 228.43 430.112 219.991 430.112C211.551 430.112 204.649 431.941 204.649 434.18C204.649 436.42 214.044 438.248 225.526 438.248H226.367C237.85 438.248 247.244 440.817 247.244 443.948C247.244 447.08 237.85 449.648 226.367 449.648Z" fill="url(#paint0_linear_51_64)"/>
<path d="M131.796 309.42C131.796 298.051 140.064 286.86 140.064 272.221C140.064 266.711 135.933 254.14 130.765 248.282C139.033 251.382 159.524 253.963 176.573 249.49C167.622 264.642 167.445 276.352 183.292 278.25C165.382 301.841 177.611 313.209 177.611 322.509C177.611 330.258 170.722 335.939 158.841 335.939C145.062 335.939 131.802 324.229 131.802 309.42H131.796Z" fill="white"/>
<path d="M240.969 221.939C232.188 223.837 206.358 226.76 197.058 224.179C201.019 240.71 187.417 248.289 187.417 267.229C187.417 279.281 194.648 285.139 214.626 285.139C241.146 285.139 247.517 276.529 247.517 261.719C247.517 250.009 237.186 233.82 240.975 221.939H240.969ZM216.86 259.309C214.101 259.309 213.07 257.417 213.07 254.488C213.07 249.838 214.101 240.887 217.201 240.887C219.27 240.887 223.401 249.326 223.401 253.115C223.401 256.045 219.782 259.315 216.86 259.315V259.309Z" fill="white"/>
<path d="M391.099 314.949H306.067C293.377 314.949 293.377 296.426 306.067 296.426H352.964C357.31 296.426 360.866 293.104 360.866 289.049C360.866 284.994 357.31 281.673 352.964 281.673H300.095C281.547 281.673 281.097 260.037 281.097 245.878C281.097 226.589 285.747 219.877 291.776 219.877C294.186 219.877 296.945 220.908 299.697 222.288C296.597 212.646 291.257 195.249 298.318 174.416C286.778 171.146 268.527 178.547 230.126 178.547C217.727 178.547 203.436 176.656 187.076 170.627C192.415 186.816 181.907 205.067 181.907 218.498C181.907 223.838 183.116 229 186.728 235.547C190.688 218.156 201.709 208.338 230.126 208.338C253.028 208.338 257.677 222.629 257.677 247.77C257.677 284.102 248.036 297.881 230.126 297.881C216.866 298.051 216.696 290.302 208.256 290.302C200.855 290.302 191.207 297.881 191.207 311.83C191.207 326.64 205.498 335.079 237.876 335.079C251.68 335.079 278.307 329.025 307.263 329.025H391.105C395.452 329.025 399.007 325.855 399.007 321.99C399.007 318.125 395.452 314.955 391.105 314.955L391.099 314.949Z" fill="white"/>
<path d="M165.427 201.24C169.855 201.24 173.48 198.026 173.48 194.098C173.48 190.169 169.855 186.955 165.427 186.955H66.3946C61.9662 186.955 58.3412 190.169 58.3412 194.098C58.3412 198.026 61.9662 201.24 66.3946 201.24H92.1553C96.5837 201.24 100.209 204.865 100.209 209.293V209.951C100.209 214.38 96.5837 218.005 92.1553 218.005H8.05339C3.62497 218.005 0 221.37 0 225.489C0 229.607 3.62497 232.973 8.05339 232.973H157.025C161.454 232.973 165.079 229.607 165.079 225.489C165.079 221.37 161.454 218.005 157.025 218.005H126.646C122.218 218.005 118.593 214.38 118.593 209.951V209.293C118.593 204.865 122.218 201.24 126.646 201.24H165.433H165.427Z" fill="url(#paint1_linear_51_64)"/>
<path d="M74.0119 254.204H100.215C108.193 254.204 112.748 258.404 112.748 266.097C112.748 273.79 108.193 277.991 100.215 277.991H74.0119C66.0344 277.991 61.4795 273.79 61.4795 266.097C61.4795 258.404 66.0344 254.204 74.0119 254.204ZM73.5184 270.152H100.722C104.283 270.152 105.637 268.583 105.637 266.091C105.637 263.598 104.283 262.029 100.722 262.029H73.5184C69.9567 262.029 68.6029 263.598 68.6029 266.091C68.6029 268.583 69.9567 270.152 73.5184 270.152Z" fill="white"/>
<path d="M74.0119 281.906H76.8588V289.314H73.4426C69.8809 289.314 68.603 290.883 68.603 293.376C68.603 295.868 69.8872 297.437 73.5881 297.437C77.7192 297.437 80.3509 295.868 84.8426 290.744C90.6122 284.19 94.6673 282.058 100.367 282.058C108.199 282.058 112.761 286.12 112.761 293.736C112.761 301.353 108.206 305.13 100.228 305.13H98.1658V297.722H100.728C104.29 297.722 105.643 296.299 105.643 293.806C105.643 291.313 104.29 289.89 100.873 289.89C97.2421 289.89 94.6041 291.529 90.1187 296.653C84.3491 303.207 80.3636 305.269 74.1701 305.269C66.0535 305.269 61.4922 301.138 61.4922 293.445C61.4922 285.753 66.0471 281.906 74.0246 281.906H74.0119Z" fill="white"/>
<path d="M112.038 315.588V326.197L62.1934 334.313V326.482L72.094 325.058H71.9485V316.157L62.1934 314.734V307.471L112.038 315.588ZM78.7113 324.134L103.352 320.642V320.503L78.7113 317.087V324.134Z" fill="white"/>
<path d="M112.039 338.09V345.922H91.0291L112.039 355.893V363.725L93.7368 354.393L62.1875 363.864V355.677L84.4055 349.054L78.0665 345.922H62.1875V338.09H112.032H112.039Z" fill="white"/>
<path d="M112.038 373.625V384.234L62.1934 392.351V384.519L72.094 383.095H71.9485V374.194L62.1934 372.771V365.508L112.038 373.625ZM78.7113 382.172L103.352 378.68V378.54L78.7113 375.124V382.172Z" fill="white"/>
<path d="M74.0119 406.952H100.215C108.193 406.952 112.748 410.937 112.748 418.63C112.748 426.323 108.193 430.309 100.215 430.309H95.9452V422.9H100.715C104.277 422.9 105.631 421.332 105.631 418.839C105.631 416.346 104.277 414.778 100.715 414.778H73.4425C69.8808 414.778 68.6029 416.346 68.6029 418.839C68.6029 421.332 69.8871 422.9 73.4425 422.9H83.1977V418.985H90.3211V430.309H74.0119C66.0344 430.309 61.4795 426.323 61.4795 418.63C61.4795 410.937 66.0344 406.952 74.0119 406.952Z" fill="white"/>
<path d="M112.038 435.364V443.196H62.1934V435.364H112.038Z" fill="white"/>
<path d="M112.038 449.035V458.859L82.2035 466.476V466.622H112.038V473.6H62.1934V465.553L98.5823 456.152V456.012H62.1934V449.035H112.038Z" fill="white"/>
<path d="M74.0119 478.87H100.215C108.193 478.87 112.748 482.855 112.748 490.548C112.748 498.241 108.193 502.226 100.215 502.226H95.9452V494.818H100.715C104.277 494.818 105.631 493.249 105.631 490.757C105.631 488.264 104.277 486.695 100.715 486.695H73.4425C69.8808 486.695 68.6029 488.264 68.6029 490.757C68.6029 493.249 69.8871 494.818 73.4425 494.818H83.1977V490.902H90.3211V502.226H74.0119C66.0344 502.226 61.4795 498.241 61.4795 490.548C61.4795 482.855 66.0344 478.87 74.0119 478.87Z" fill="white"/>
<path d="M112.038 513.335V523.944L62.1934 532.061V524.229L72.094 522.806H71.9485V513.905L62.1934 512.481V505.219L112.038 513.335ZM78.7113 521.882L103.352 518.39V518.251L78.7113 514.834V521.882Z" fill="white"/>
<path d="M83.4118 539.754L112.038 530.284V538.615L93.7363 543.955V544.1L112.038 549.44V557.056L83.4118 547.586H62.1934V539.754H83.4118Z" fill="white"/>
<path d="M74.0119 558.771H100.215C108.193 558.771 112.748 562.971 112.748 570.664C112.748 578.357 108.193 582.557 100.215 582.557H74.0119C66.0344 582.557 61.4795 578.357 61.4795 570.664C61.4795 562.971 66.0344 558.771 74.0119 558.771ZM73.5184 574.719H100.722C104.283 574.719 105.637 573.15 105.637 570.658C105.637 568.165 104.283 566.596 100.722 566.596H73.5184C69.9567 566.596 68.6029 568.165 68.6029 570.658C68.6029 573.15 69.9567 574.719 73.5184 574.719Z" fill="white"/>
<path d="M112.038 587.828V595.66H62.1934V587.828H112.038Z" fill="white"/>
<path d="M73.7272 600.999H100.5C108.193 600.999 112.748 604.985 112.748 612.538C112.748 620.092 108.193 624.078 100.5 624.078H95.2303V616.67H101C104.277 616.67 105.631 615.101 105.631 612.754C105.631 610.406 104.277 608.838 101 608.838H73.1579C69.8808 608.838 68.6029 610.406 68.6029 612.754C68.6029 615.101 69.8872 616.67 73.1579 616.67H80.7747V624.078H73.7272C66.0344 624.078 61.4795 620.092 61.4795 612.538C61.4795 604.985 66.0344 600.999 73.7272 600.999Z" fill="white"/>
<path d="M112.038 628.771V636.603H91.7435V645.005H112.038V652.836H62.1934V645.005H84.6264V636.603H62.1934V628.771H112.038Z" fill="white"/>
<path d="M112.038 658.682V666.514H62.1934V658.682H112.038Z" fill="white"/>
</g>
<defs>
<linearGradient id="paint0_linear_51_64" x1="216.834" y1="394.47" x2="211.773" y2="603.662" gradientUnits="userSpaceOnUse">
<stop stop-color="white"/>
<stop offset="0.22" stop-color="#FCFCFC"/>
<stop offset="0.36" stop-color="#F4F3F3"/>
<stop offset="0.47" stop-color="#E6E5E4"/>
<stop offset="0.58" stop-color="#D2D0CF"/>
<stop offset="0.68" stop-color="#B9B5B4"/>
<stop offset="0.77" stop-color="#999493"/>
<stop offset="0.85" stop-color="#746D6B"/>
<stop offset="0.93" stop-color="#4A413F"/>
<stop offset="1" stop-color="#231815"/>
</linearGradient>
<linearGradient id="paint1_linear_51_64" x1="180.496" y1="210.363" x2="-18.574" y2="209.521" gradientUnits="userSpaceOnUse">
<stop stop-color="white"/>
<stop offset="0.38" stop-color="#FDFDFD"/>
<stop offset="0.52" stop-color="#F6F6F6"/>
<stop offset="0.61" stop-color="#EBEAEA"/>
<stop offset="0.69" stop-color="#DBDAD9"/>
<stop offset="0.76" stop-color="#C7C4C3"/>
<stop offset="0.82" stop-color="#ADA9A8"/>
<stop offset="0.87" stop-color="#8F8987"/>
<stop offset="0.92" stop-color="#6B6462"/>
<stop offset="0.97" stop-color="#443B39"/>
<stop offset="1" stop-color="#231815"/>
</linearGradient>
<clipPath id="clip0_51_64">
<rect width="399" height="685.063" fill="white"/>
</clipPath>
</defs>
</svg>
